<svg xmlns="http://www.w3.org/2000/svg" viewBox="0 0 100 100">
  <defs>
    <!-- Dynamic Cyan to Blue to Indigo Gradient -->
    <linearGradient id="df-gradient" x1="10%" y1="10%" x2="90%" y2="90%">
      <stop offset="0%" stop-color="#00E5FF" />
      <stop offset="45%" stop-color="#38BDF8" />
      <stop offset="75%" stop-color="#3B82F6" />
      <stop offset="100%" stop-color="#6366F1" />
    </linearGradient>

    <!-- Dark rounded badge background -->
    <linearGradient id="bg-gradient" x1="0%" y1="0%" x2="100%" y2="100%">
      <stop offset="0%" stop-color="#050F1E" />
      <stop offset="100%" stop-color="#0B2A3D" />
    </linearGradient>

    <!-- Glowing Star Filter -->
    <filter id="star-glow" x="-50%" y="-50%" width="200%" height="200%">
      <feGaussianBlur in="SourceGraphic" stdDeviation="1.5" result="blur" />
      <feMerge>
        <feMergeNode in="blur" />
        <feMergeNode in="SourceGraphic" />
      </feMerge>
    </filter>
  </defs>

  <!-- App Icon Squircle Background -->
  <rect width="100" height="100" rx="22" fill="url(#bg-gradient)" stroke="#38BDF8" stroke-width="1.5" stroke-opacity="0.3"/>

  <!-- Logo Shapes scaled nicely inside -->
  <g transform="translate(5, 5) scale(0.9)">
    <!-- Top D-Wing Bar -->
    <path
      d="M 18 16 L 72 16 C 76 16 79 19 77 23 L 72 32 C 70 35 67 37 63 37 L 27 37 L 18 16 Z"
      fill="url(#df-gradient)"
    />

    <!-- Left Dynamic Swoop / Spine -->
    <path
      d="M 27 39 L 41 39 L 20 84 L 14 84 C 11 84 9 81 10 78 L 27 39 Z"
      fill="url(#df-gradient)"
    />

    <!-- Upper F-Wing -->
    <path
      d="M 64 36 L 90 36 C 94 36 96 39 94 43 L 88 52 C 86 55 83 56 80 56 L 56 56 L 64 36 Z"
      fill="url(#df-gradient)"
    />

    <!-- Lower F-Wing -->
    <path
      d="M 52 58 L 78 58 C 82 58 84 61 82 65 L 71 81 C 69 84 66 85 63 85 L 40 85 L 52 58 Z"
      fill="url(#df-gradient)"
    />

    <!-- Central Radiant 4-Point Star -->
    <path
      d="M 45 36 Q 45 52 61 52 Q 45 52 45 68 Q 45 52 29 52 Q 45 52 45 36 Z"
      fill="#00E5FF"
      filter="url(#star-glow)"
    />
  </g>
</svg>
